<svg width="833.22212" height="633.11008" xmlns="http://www.w3.org/2000/svg" data-name="Layer 1">

 <g>
  <title>Layer 1</title>
  <path id="svg_1" fill="#f2f2f2" d="m770.92474,575.46222c-27.3,20.79 -60.56,41.85 -93.26,51.78a132.151,132.151 0 0 1 -29,5.61a87.68166,87.68166 0 0 1 -27.45,-2.12994c-23.6,-5.87006 -45.49,-16.15 -66.67,-28.16c-6.92,-3.93 -13.76,-8.04 -20.56,-12.24c-11.1,-6.86 -22.09,-13.96 -33.11,-20.89c-1.65,-1.05 -3.29,-2.08 -4.94,-3.1l-0.01,0q-3.99,-2.505 -8,-4.94c-0.47,-0.29 -0.94,-0.57 -1.42,-0.86q-7.57508,-4.59 -15.41,-8.97c-0.64,-0.35 -1.28,-0.71 -1.92,-1.06a337.75842,337.75842 0 0 0 -31.12,-15.23c-6.98005,-2.94 -14.05,-5.59 -21.19,-7.85l-0.01,0c-2.73,-0.86 -5.47,-1.67 -8.22,-2.41a172.03228,172.03228 0 0 0 -25.13995,-4.92a137.46074,137.46074 0 0 0 -35.21,0.28c-0.79,0.11 -1.57,0.22 -2.36,0.35c-31.6,5.06 -60.44,22.12 -92.18,26.14c-1.03,0.13 -2.05,0.25 -3.08,0.34c-0.44,0.04 -0.88,0.09 -1.32,0.12a126.18456,126.18456 0 0 1 -27.68,-0.68c-25.63,-3.38 -50.59,-13.87 -73.06,-27.09c-52.53,-30.91 -95.13,-78.42 -121.03,-133.44a297.4536,297.4536 0 0 1 -11.82995,-28.93a278.46974,278.46974 0 0 1 -15.67005,-84.85c-2.43,-100.36 54.6,-201.05 144.14,-246.44c89.55,-45.39 207.35,-30.38 279.57,39.35c43.81,42.3 69.16,99.62 102.13,150.83c32.97,51.2 79.83,100.11 140.27,107.57c30.79,3.8 63.01,-3.55 92.52,6.01c16.34,5.3 30.28,15.44 41.51,28.36a127.18525,127.18525 0 0 1 18.78,29a141.92676,141.92676 0 0 1 8.73,23.54c0.41,1.49 0.79,2.98 1.16,4.47c14.69992,60.03991 -8.79007,122.97991 -57.96005,160.43994z"/>
  <rect id="svg_2" fill="#3f3d56" rx="25.49997" height="51" width="145" y="466.77221" x="159.66474"/>
  <path id="svg_3" fill="#3f3d56" d="m250.66473,504.77221l0,42.43a125.55316,125.55316 0 0 1 -29,-0.56l0,-41.87l29,0z"/>
  <path id="svg_4" fill="#2f2e41" d="m348.28473,520.37219c-0.79,0.11 -1.57,0.22 -2.36,0.35c-31.6,5.06 -60.44,22.12 -92.18,26.14c-1.03,0.13 -2.05,0.25 -3.08,0.34c-0.44,0.04 -0.88,0.09 -1.32,0.12c-7.75,-7.59 -15.5,-15.67 -22.78,-24.04c-3.95,-4.53 -7.77,-9.15 -11.36005,-13.83c-9.32,-12.08 -17.22,-24.5 -22.44,-36.7c0.53,-5.85 -3.11,-19.38 -4.85,-29.74l-0.01,-0.01c-0.74,-4.35 -1.14,-8.13 -0.77,-10.56c2.12006,-14.02 13.57,-12.41 17.09,-26.15a77.49954,77.49954 0 0 1 10.11,-7.11c0.59,-0.35 1.19,-0.7 1.81,-1.05l38.2,-26.4l14.6,14.32l22.22,21.8l24.08,23.61005l-20.44,20.65s17.07995,19.69 37.05,45.94c5.36004,7.04993 10.93005,14.57996 16.43005,22.31995z"/>
  <path id="svg_5" fill="#3f3d56" d="m677.66473,504.77221l0,122.47a132.151,132.151 0 0 1 -29,5.61l0,-128.08l29,0z"/>
  <rect id="svg_6" fill="#3f3d56" rx="25.49997" height="51" width="145" y="494.77221" x="595.66474"/>
  <path id="svg_7" fill="#ffb6b6" d="m486.50476,560.53222q-7.57508,-4.59 -15.41,-8.97c-0.64,-0.35 -1.28,-0.71 -1.92,-1.06l3.44,-1.47l9.28,-3.99l0.09,-0.04l0.1,0.34l4.42,15.19z"/>
  <path id="svg_8" fill="#2f2e41" d="m500.87475,569.43219c-1.65,-1.05 -3.29,-2.08 -4.94,-3.1l-0.01,0q-3.99,-2.505 -8,-4.94c-0.47,-0.29 -0.94,-0.57 -1.42,-0.86q-7.57508,-4.59 -15.41,-8.97c-0.64,-0.35 -1.28,-0.71 -1.92,-1.06a337.75842,337.75842 0 0 0 -31.12,-15.23c-6.98005,-2.94 -14.05,-5.59 -21.19,-7.85l-0.01,0l-5.61,-9.39l-25.25,-42.29l-5.55,-9.29s-18.93005,5.6 -45.72,10.97c-9.75,1.96 -20.53,3.88 -31.84,5.5c-12.09,1.72 -24.77,3.09 -37.37,3.75c-6.01,0.32 -12,0.48 -17.9,0.43c-15.25,-0.1 -29.9,-1.53 -42.73,-4.93c-4.28,-4.02 -17.18,-9.49 -26.42,-14.5l-0.01,0c-3.88,-2.1 -7.1,-4.11 -8.79,-5.9c-9.74,-10.3 -1.42,-18.33 -10.08,-29.57a78.01753,78.01753 0 0 1 0.63,-12.34c0.09,-0.68 0.18,-1.37 0.29,-2.07l2.73,-46.36l20.28,-2.68l30.86,-4.08l33.43,-4.42l3.68,28.82s26.03,-1.32 59.01,-0.88c52.97,0.72 123.85,6 133.45,28.66c0.9,2.13 1.8,4.28 2.7,6.43q3.21,7.70994 6.36005,15.5c7.61,18.8 14.87,37.78 21.5,55.72c4.12,11.16 8,21.92 11.56994,31.99c2.87006,8.1 5.53,15.76 7.96,22.81c2.22,6.44 4.23,12.37 6.02,17.69c0.27997,0.83001 0.54999,1.65002 0.82001,2.44z"/>
  <path id="svg_9" fill="#a0616a" d="m314.31905,288.54476l-64.05525,-54.40133l41.675,-42.17691l29.075,47.62305l107.774,21.36695a20.90017,20.90017 0 1 1 -2.96957,30.67819l-111.49918,-3.08995z"/>
  <path id="svg_10" fill="#3f3d56" d="m193.6534,162.6469c-7.40272,24.08263 63.09957,81.52 63.09957,81.52c0.78339,-5.78164 40.75579,44.07344 43.4754,39.55842c7.72908,-12.83228 16.2337,-44.55195 25.15668,-48.606c5.10285,-2.31848 -24.17069,-34.54346 -24.17069,-34.54346s-14.93261,-19.756 -34.6486,-44.79433a53.41188,53.41188 0 0 0 -47.084,-20.96122s-18.42562,3.744 -25.82836,27.82659z"/>
  <circle id="svg_11" fill="#a0616a" r="43.32403" cy="66.00911" cx="224.82523"/>
  <path id="svg_12" fill="#3f3d56" d="m246.48724,137.9673c9.33357,5.54889 14.91693,15.74413 18.122,26.1187a247.51563,247.51563 0 0 1 10.63632,59.137l3.3853,60.08943l41.92648,127.94729c-36.3363,30.746 -172.919,6.98768 -172.919,6.98768s-4.19264,-1.3974 0,-5.59019s8.27421,-0.47818 4.08162,-4.67087s-1.3024,0.47819 0.0952,-3.7145s0,-1.3974 -1.39755,-2.79509s10.81911,-13.97556 10.81911,-13.97556l-11.18035,-73.44285l-13.97546,-148.14017c16.77065,-20.96323 50.49849,-33.3209 50.49849,-33.3209l8.71485,-15.68672l43.57423,3.48593l7.61876,17.57082z"/>
  <path id="svg_13" fill="#2f2e41" d="m260.53905,42.99175a20.07763,20.07763 0 0 1 7.13274,10.01951a141.01837,141.01837 0 0 0 0.09279,-19.65944c-0.51064,-4.60083 -3.74974,-5.63572 -7.50039,-6.83487c-3.38718,-1.0834 -7.21783,-2.30721 -8.24844,-6.77356c-13.61863,-13.24844 -37.32575,-12.58037 -53.55037,-7.95911c-8.9276,2.543 -14.0646,5.81022 -14.52418,7.7242l-0.09529,0.394l-0.36256,0.18128c-6.88167,3.44083 -8.22124,14.30631 -8.13272,22.8152c0.16765,16.03141 5.70292,34.239 8.8212,35.7181c0.1651,0.07829 0.20679,0.04764 0.27828,-0.0119l0,0c4.6953,-3.75234 10.4238,0.28515 12.94119,2.48a45.05892,45.05892 0 0 1 40.34614,-38.21931a70.7027,70.7027 0 0 0 9.72421,-1.63058a20.47249,20.47249 0 0 1 4.96762,-0.6519a14.13716,14.13716 0 0 1 8.10978,2.40838z"/>
  <path id="svg_14" fill="#6c63ff" d="m205.94888,353.81739l-13.25283,-6.78735a3.63228,3.63228 0 0 1 3.27636,-6.39728l13.25279,6.78739a3.63228,3.63228 0 0 1 -3.27636,6.39728l0.00004,-0.00004z"/>
  <path id="svg_15" fill="#a0616a" d="m161.34605,335.63304l-21.80115,-81.16214l58.25865,-11.0284l-3.13289,55.7091l76.54694,78.81836a20.90017,20.90017 0 1 1 -19.87455,23.55784l-89.997,-65.89476z"/>
  <path id="svg_16" fill="#3f3d56" d="m133.58328,163.47117c-19.77507,15.61152 5.60629,102.93512 5.60629,102.93512c3.9297,-4.31264 8.49619,59.425 13.29948,57.25472c13.65136,-6.16814 38.67257,-27.43807 48.3187,-25.70436c5.51648,0.99153 -0.26308,-42.15927 -0.26308,-42.15927s-1.063,-24.74173 -3.06092,-56.54811a53.412,53.412 0 0 0 -26.83569,-44.0014s-17.28966,-7.38813 -37.06478,8.2233z"/>
  <path id="svg_17" fill="#3f3d56" d="m818.99475,387.0122l-791.42,-0.9a297.4536,297.4536 0 0 1 -11.82995,-28.93l784.47,0.83a127.18525,127.18525 0 0 1 18.77995,29z"/>
  <path id="svg_18" fill="#ffb6b6" d="m566.92474,596.83221q-6.135,2.97 -12.38,5.73c-6.92,-3.93 -13.76,-8.04 -20.56,-12.24l25.22,-11.08l7.72,17.59z"/>
  <path id="svg_19" fill="#2f2e41" d="m750.80475,459.03222q-6.15006,8.25 -12.69,16.17q-6.03,7.305 -12.38,14.33c-1.75,1.94 -3.52,3.87 -5.33,5.78q-4.995,5.355 -10.21,10.53c-6.26,1.97 -18.94,5.44 -32.53,8.68c-9.89,2.35 -20.26,4.58 -29,6a104.48641,104.48641 0 0 1 -14.81,1.58c-5.9,0.05 -11.89,-0.11 -17.9,-0.43c-6.78,-0.36 -13.57,-0.92 -20.28,-1.64c-17.45,-1.83 -34.35,-4.68 -48.93,-7.61c-5.34,-1.06 -10.36005,-2.14 -14.98,-3.19c-8.75,-1.97 -16.06995,-3.81 -21.37,-5.21c-5.97,-1.56 -9.37,-2.57 -9.37,-2.57l-14.95,25.04l-7.75994,12.99l-5.7,9.55l-1.52,2.53c-0.64,-0.35 -1.28,-0.71 -1.92,-1.06a337.75842,337.75842 0 0 0 -31.12,-15.23c-6.98005,-2.94 -14.05,-5.59 -21.19,-7.85l-0.01,0c-2.73,-0.86 -5.47,-1.67 -8.22,-2.41q1.29008,-3.465 2.61005,-6.98q2.45992,-6.555 5.02,-13.23c3.69,-9.63995 7.51,-19.42 11.44,-29.15c3.22,-7.99 6.5,-15.95 9.82,-23.8c1.53,-3.62 4.64,-6.8 8.99,-9.59a52.32312,52.32312 0 0 1 6.49005,-3.48c12.44995,-5.67 30.79,-9.36 51,-11.73c1.67,-0.19 3.35,-0.38 5.04,-0.56c16.73,-1.76 34.48,-2.67 51.08,-3.09c8.31,-0.21 16.33,-0.29 23.79,-0.3q3.615,0 7.03,0.02l0.01,0c6.15,0.03 11.81,0.12 16.79,0.22c0.97,0.02 1.91,0.05 2.83,0.07l0.01,0c0.62,0.01 1.23005,0.03 1.83,0.04c10.89,0.28 17.57,0.62 17.57,0.62l2.59,-20.32l0.53,-4.1l0.5,-3.9l0,-0.01l0.06,-0.49l0.41,-0.01l7.2,-0.14l60.52,-1.18l33.06,-0.65l-5.24,22.46l-8.65,37.06c0.87981,5.86 30.13982,1.26997 29.83984,6.24z"/>
  <path id="svg_20" fill="#2f2e41" d="m574.3847,593.1322c-2.47,1.26 -4.96,2.5 -7.46,3.7q-6.135,2.97 -12.38,5.73c-6.92,-3.93 -13.76,-8.04 -20.56,-12.24c-11.1,-6.86 -22.09,-13.96 -33.11,-20.89c-1.65,-1.05 -3.29,-2.08 -4.94,-3.1l-0.01,0c-4.54,-6.74 -9.17,-13.76 -13.84,-20.99c-0.07,-0.1 -0.13,-0.2 -0.19,-0.30005q-1.79993,-2.75994 -3.58,-5.56c-7.47,-11.7 -14.98005,-23.9 -22.27,-36.36l18.46,-8.62l34.31994,-16.02l5.92,-2.75994l17.02,33.50994l15.18005,29.89l3.37994,6.65l24.06007,47.36005z"/>
  <path id="svg_21" fill="#ffb8b8" d="m579.55724,432.24982l87.50055,-84.38371l24.25231,-68.66967l-35.7729,-15.5554c-18.37452,17.6014 -38.23657,72.42429 -38.23657,72.42429l-60.21278,76.60442c-0.4692,0.1607 -0.93718,0.33133 -1.39933,0.53544a17.23112,17.23112 0 1 0 23.86872,19.04463z"/>
  <path id="svg_22" fill="#6c63ff" d="m645.4713,271.30827l45.37541,14.40513l0.171,-0.02847c16.88869,-2.829 30.9027,-30.41247 39.68439,-53.05389a31.59624,31.59624 0 0 0 -16.08739,-40.02451l0,0a31.66589,31.66589 0 0 0 -33.1649,4.18441l-23.30057,19.03929l-12.67794,55.47804z"/>
  <path id="svg_23" fill="#ffc200" d="m750.62259,460.04496l0.26505,-0.35223c14.15727,-18.77628 -5.2058,-65.27339 -8.13309,-72.01689l13.16362,-3.89925l-2.29443,-25.06377l-1.10513,-11.1761l10.23494,-9.71968l0.03447,-0.24807l7.03885,-50.09245l9.20992,-33.1538a73.28485,73.28485 0 0 0 -18.96074,-71.53477l-18.82749,-18.69291l-22.5563,-35.30637l-37.8193,-0.97639l-13.59975,24.15893a55.14122,55.14122 0 0 0 -44.103,55.17854l1.28036,64.31568l-13.57024,79.68711l-0.3807,14.47486l-13.31921,14.05527l2.46244,14.20951l-9.963,3.9686l-4.87538,20.19138c-1.862,2.32956 -14.15633,17.87008 -14.26818,22.20243c-0.01679,0.65043 0.44707,1.29151 1.45938,2.01562c7.958,5.69367 52.43741,18.031 72.456,10.61389c21.32343,-7.894 104.89466,6.93176 105.7366,7.08256l0.43431,0.0783z"/>
  <circle id="svg_24" fill="#ffb8b8" r="50.1036" cy="66.8854" cx="696.47956"/>
  <path id="svg_25" fill="#2f2e41" d="m690.36728,117.6594a136.26665,136.26665 0 0 0 23.18064,-1.62c7.59922,-1.54533 24.59947,-14.00321 29.33857,-21.4998l0,0c3.52093,-5.56989 5.77245,-14.26768 7.04151,-20.583a60.91432,60.91432 0 0 0 -10.65371,-48.35812a19.24494,19.24494 0 0 0 -7.77317,-6.63435c-0.27844,-0.10888 -0.565,-0.20537 -0.85454,-0.28786a23.74464,23.74464 0 0 1 -11.81175,-7.30889a19.58589,19.58589 0 0 0 -1.96357,-2.02086a29.2483,29.2483 0 0 0 -12.20276,-6.12728c-7.25394,-1.94141 -17.752,-0.01431 -31.20184,5.73333c-6.75724,2.88773 -14.14724,1.84266 -19.83226,0.60946a1.86014,1.86014 0 0 0 -1.75136,0.6a13.13152,13.13152 0 0 1 -8.92485,3.55766c-2.032,0.08923 -4.16392,2.90278 -6.74081,6.57174c-0.5847,0.83285 -1.267,1.80487 -1.75914,2.39607l-0.06607,-1.13583l-1.14927,1.26711a15.93481,15.93481 0 0 0 7.19417,25.96108a31.07641,31.07641 0 0 0 6.2501,0.996c1.27917,0.11508 2.60233,0.23413 3.87032,0.45413a24.02454,24.02454 0 0 1 17.8528,15.59016a6.28282,6.28282 0 0 0 9.483,3.05031a10.3807,10.3807 0 0 1 9.459,-1.72243a6.89123,6.89123 0 0 1 3.04595,3.455a8.98031,8.98031 0 0 0 3.40768,3.97567c5.14968,2.65506 5.50461,14.41709 3.6551,24.22217c-1.78279,9.45123 -5.307,16.28835 -8.57,16.62634c-2.512,0.25986 -2.79926,0.43831 -2.98114,0.88257l-0.16246,0.3977l0.28218,0.372a10.2608,10.2608 0 0 0 4.33768,0.57992z"/>
  <path id="svg_26" fill="#ffb8b8" d="m657.9133,256.16004l-19.31863,-38.5155c-28.04093,1.91544 -83.6946,34.33734 -83.6946,34.33734l-105.29873,22.32558a19.02347,19.02347 0 1 0 5.18645,32.5081l133.94626,-9.60126l69.17925,-41.05426z"/>
  <path id="svg_27" fill="#ffc200" d="m650.12155,262.48421l50.45383,-37.49451l8.88732,-32.02709a34.982,34.982 0 0 0 -10.52129,-35.39425l0,0a34.89929,34.89929 0 0 0 -47.624,1.53654c-18.98656,18.95124 -40.64185,45.39 -35.99009,63.72324l0.04709,0.18584l34.74714,39.47023z"/>
  <rect id="svg_28" fill="#fff" height="18" width="135" y="362.77221" x="452.66474"/>
  <rect id="svg_29" fill="#fff" height="18" width="135" y="362.77221" x="107.66474"/>
  <path id="svg_30" fill="#3f3d56" d="m258.42871,276.2104l0,85.704a4.12233,4.12233 0 0 0 4.11906,4.11906l127.00449,0a4.12231,4.12231 0 0 0 4.11906,-4.11906l0,-85.704a4.12431,4.12431 0 0 0 -4.11906,-4.11451l-127.00449,0a4.12433,4.12433 0 0 0 -4.11906,4.11451z"/>
  <path id="svg_31" fill="#999999" d="m261.40817,277.27676l0,83.58039a2.20522,2.20522 0 0 0 2.20141,2.20141l124.88547,0a2.2052,2.2052 0 0 0 2.20141,-2.20141l0,-83.58039a2.2062,2.2062 0 0 0 -2.20141,-2.206l-124.88547,0a2.20622,2.20622 0 0 0 -2.20141,2.206z"/>
  <path id="svg_32" fill="#2f2e41" d="m255.77254,378.62894a2.46987,2.46987 0 0 0 1.94346,0.92983l135.992,0a2.5024,2.5024 0 0 0 2.44605,-3.01573l-2.111,-10.02722a2.50692,2.50692 0 0 0 -1.55811,-1.81784a2.42467,2.42467 0 0 0 -0.888,-0.1675l-131.77831,0a2.42455,2.42455 0 0 0 -0.888,0.1675a2.5067,2.5067 0 0 0 -1.5581,1.81784l-2.111,10.02722a2.50046,2.50046 0 0 0 0.51101,2.0859z"/>
  <rect id="svg_33" transform="rotate(-180 960.463 868.631)" fill="#3f3d56" rx="0.48819" height="2.51309" width="4.18849" y="1368.41214" x="1530.29411"/>
  <rect id="svg_34" transform="rotate(-180 943.709 868.631)" fill="#3f3d56" rx="0.48819" height="2.51309" width="4.18849" y="1368.41214" x="1505.16315"/>
  <rect id="svg_35" transform="rotate(-180 926.955 868.631)" fill="#3f3d56" rx="0.48819" height="2.51309" width="4.18849" y="1368.41214" x="1480.0322"/>
  <rect id="svg_36" transform="rotate(-180 910.201 868.631)" fill="#3f3d56" rx="0.48819" height="2.51309" width="4.18849" y="1368.41214" x="1454.90125"/>
  <rect id="svg_37" transform="rotate(-180 893.447 868.631)" fill="#3f3d56" rx="0.48819" height="2.51309" width="4.18849" y="1368.41214" x="1429.77031"/>
  <rect id="svg_38" transform="rotate(-180 876.693 868.631)" fill="#3f3d56" rx="0.48819" height="2.51309" width="4.18849" y="1368.41214" x="1404.63936"/>
  <rect id="svg_39" transform="rotate(-180 859.939 868.631)" fill="#3f3d56" rx="0.48819" height="2.51309" width="4.18849" y="1368.41214" x="1379.5084"/>
  <rect id="svg_40" transform="rotate(-180 843.185 868.631)" fill="#3f3d56" rx="0.48819" height="2.51309" width="4.18849" y="1368.41214" x="1354.37745"/>
  <rect id="svg_41" transform="rotate(-180 826.431 868.631)" fill="#3f3d56" rx="0.48819" height="2.51309" width="4.18849" y="1368.41214" x="1329.24651"/>
  <rect id="svg_42" transform="rotate(-180 809.677 868.631)" fill="#3f3d56" rx="0.48819" height="2.51309" width="4.18849" y="1368.41214" x="1304.11556"/>
  <rect id="svg_43" transform="rotate(-180 792.923 868.631)" fill="#3f3d56" rx="0.48819" height="2.51309" width="4.18849" y="1368.41214" x="1278.98461"/>
  <rect id="svg_44" transform="rotate(-180 776.169 868.631)" fill="#3f3d56" rx="0.48819" height="2.51309" width="4.18849" y="1368.41214" x="1253.85372"/>
  <rect id="svg_45" transform="rotate(-180 759.415 868.631)" fill="#3f3d56" rx="0.48819" height="2.51309" width="4.18849" y="1368.41214" x="1228.72277"/>
  <rect id="svg_46" transform="rotate(-180 742.661 868.631)" fill="#3f3d56" rx="0.48819" height="2.51309" width="4.18849" y="1368.41214" x="1203.59182"/>
  <rect id="svg_47" transform="rotate(-180 725.907 868.631)" fill="#3f3d56" rx="0.48819" height="2.51309" width="4.18849" y="1368.41214" x="1178.46087"/>
  <rect id="svg_48" transform="rotate(-180 709.153 868.631)" fill="#3f3d56" rx="0.48819" height="2.51309" width="4.18849" y="1368.41214" x="1153.32993"/>
  <rect id="svg_49" transform="rotate(-180 960.66 877.008)" fill="#3f3d56" rx="0.48819" height="2.51309" width="4.18849" y="1380.97765" x="1530.59102"/>
  <rect id="svg_50" transform="rotate(-180 943.907 877.008)" fill="#3f3d56" rx="0.48819" height="2.51309" width="4.18849" y="1380.97765" x="1505.46014"/>
  <rect id="svg_51" transform="rotate(-180 927.153 877.008)" fill="#3f3d56" rx="0.48819" height="2.51309" width="4.18849" y="1380.97765" x="1480.32919"/>
  <rect id="svg_52" transform="rotate(-180 910.399 877.008)" fill="#3f3d56" rx="0.48819" height="2.51309" width="4.18849" y="1380.97765" x="1455.19824"/>
  <rect id="svg_53" transform="rotate(-180 893.645 877.008)" fill="#3f3d56" rx="0.48819" height="2.51309" width="4.18849" y="1380.97765" x="1430.06728"/>
  <rect id="svg_54" transform="rotate(-180 876.891 877.008)" fill="#3f3d56" rx="0.48819" height="2.51309" width="4.18849" y="1380.97765" x="1404.93634"/>
  <rect id="svg_55" transform="rotate(-180 860.137 877.008)" fill="#3f3d56" rx="0.48819" height="2.51309" width="4.18849" y="1380.97765" x="1379.80539"/>
  <rect id="svg_56" transform="rotate(-180 843.383 877.008)" fill="#3f3d56" rx="0.48819" height="2.51309" width="4.18849" y="1380.97765" x="1354.67444"/>
  <rect id="svg_57" transform="rotate(-180 826.629 877.008)" fill="#3f3d56" rx="0.48819" height="2.51309" width="4.18849" y="1380.97765" x="1329.5435"/>
  <rect id="svg_58" transform="rotate(-180 809.875 877.008)" fill="#3f3d56" rx="0.48819" height="2.51309" width="4.18849" y="1380.97765" x="1304.41254"/>
  <rect id="svg_59" transform="rotate(-180 793.121 877.008)" fill="#3f3d56" rx="0.48819" height="2.51309" width="4.18849" y="1380.97765" x="1279.28159"/>
  <rect id="svg_60" transform="rotate(-180 776.367 877.008)" fill="#3f3d56" rx="0.48819" height="2.51309" width="4.18849" y="1380.97765" x="1254.15064"/>
  <rect id="svg_61" transform="rotate(-180 759.613 877.008)" fill="#3f3d56" rx="0.48819" height="2.51309" width="4.18849" y="1380.97765" x="1229.0197"/>
  <rect id="svg_62" transform="rotate(-180 742.859 877.008)" fill="#3f3d56" rx="0.48819" height="2.51309" width="4.18849" y="1380.97765" x="1203.88875"/>
  <rect id="svg_63" transform="rotate(-180 726.105 877.008)" fill="#3f3d56" rx="0.48819" height="2.51309" width="4.18849" y="1380.97765" x="1178.7578"/>
  <rect id="svg_64" transform="rotate(-180 709.351 877.008)" fill="#3f3d56" rx="0.48819" height="2.51309" width="4.18849" y="1380.97765" x="1153.62684"/>
  <rect id="svg_65" transform="rotate(-180 850.922 887.06)" fill="#3f3d56" rx="0.48819" height="2.51309" width="33.50793" y="1396.0562" x="1351.32367"/>
 </g>
</svg>